<svg width="526" height="526" viewBox="0 0 526 526" fill="none" xmlns="http://www.w3.org/2000/svg">
<path d="M99.9261 263C99.9261 263.79 99.9314 264.579 99.9422 265.366C100.003 269.77 96.7083 273.579 92.3157 273.897L8.59752 279.956C4.17513 280.276 0.323878 276.938 0.166678 272.507C0.0548007 269.354 0 266.185 0 263C0 248.142 1.23113 233.572 3.59833 219.383C4.32884 215.005 8.58572 212.189 12.9339 213.083L95.195 229.989C99.4957 230.873 102.26 235.056 101.627 239.401C100.505 247.107 99.9261 254.989 99.9261 263Z" fill="url(#paint0_linear_490_2)"/>
<path d="M153.479 131.687C156.262 135.082 155.775 140.071 152.545 143.045C130.089 163.722 113.453 190.63 105.388 221.029C104.261 225.277 100.068 228.038 95.7629 227.153L13.5088 210.246C9.16758 209.353 6.36728 205.096 7.41165 200.789C20.2979 147.643 49.3336 100.805 89.0267 65.7652C92.3532 62.8287 97.4305 63.3239 100.244 66.7552L153.479 131.687Z" fill="url(#paint1_linear_490_2)"/>
<path d="M253.51 0.163844C257.942 0.00680723 261.554 3.60789 261.554 8.04288V92.007C261.554 96.3992 258.009 99.9495 253.624 100.197C221.353 102.016 191.599 113.231 167.042 131.149C163.493 133.739 158.5 133.241 155.714 129.844L102.477 64.9104C99.667 61.4824 100.172 56.4125 103.697 53.7241C145.556 21.7945 197.29 2.15576 253.51 0.163844Z" fill="url(#paint2_linear_490_2)"/>
<path d="M473.12 407.427C476.792 409.92 477.742 414.934 475.115 418.511C427.252 483.69 350.063 526 263 526C127.355 526 15.7269 423.319 1.53451 291.443C1.06024 287.036 4.38954 283.167 8.81034 282.847L92.5432 276.786C96.9259 276.469 100.724 279.751 101.287 284.109C111.635 364.209 180.091 426.074 263 426.074C315.729 426.074 362.628 401.045 392.432 362.213C395.104 358.732 400.027 357.799 403.657 360.264L473.12 407.427Z" fill="url(#paint3_linear_490_2)"/>
<path d="M506.536 338.657C510.774 339.947 513.169 344.44 511.732 348.63C505.158 367.801 496.407 385.961 485.784 402.832C483.423 406.582 478.421 407.54 474.755 405.05L405.305 357.876C401.669 355.406 400.725 350.476 402.986 346.707C408.156 338.091 412.546 328.957 416.069 319.4C417.588 315.279 422.015 312.925 426.216 314.204L506.536 338.657Z" fill="url(#paint4_linear_490_2)"/>
<path d="M517.955 264.445C522.391 264.445 525.992 268.056 525.834 272.489C525.121 292.473 522.184 311.888 517.252 330.491C516.115 334.778 511.618 337.182 507.375 335.89L427.05 311.427C422.851 310.148 420.487 305.728 421.52 301.461C423.796 292.058 425.255 282.339 425.817 272.374C426.065 267.989 429.615 264.445 434.007 264.445H517.955Z" fill="url(#paint5_linear_490_2)"/>
<path d="M525.835 253.494C525.992 257.927 522.392 261.554 517.956 261.554H434.005C429.614 261.554 426.064 258.01 425.816 253.625C421.139 171.02 354.981 104.874 272.375 100.199C267.99 99.9505 264.446 96.4006 264.446 92.0092V8.04345C264.446 3.60823 268.073 0.00736027 272.506 0.16497C410.201 5.0612 520.939 115.799 525.835 253.494Z" fill="url(#paint6_linear_490_2)"/>
<circle cx="263" cy="263" r="129.173" fill="black"/>
<circle cx="263" cy="263" r="123.673" stroke="#F1D572" stroke-opacity="0.6" stroke-width="11" stroke-dasharray="2 2"/>
<defs>
<linearGradient id="paint0_linear_490_2" x1="51.481" y1="211.461" x2="52.0448" y2="273.959" gradientUnits="userSpaceOnUse">
<stop stop-color="#CD3939"/>
<stop offset="1" stop-color="#CD3939" stop-opacity="0"/>
</linearGradient>
<linearGradient id="paint1_linear_490_2" x1="75.1759" y1="99.7527" x2="52.7677" y2="216.854" gradientUnits="userSpaceOnUse">
<stop stop-color="#C156D0"/>
<stop offset="1" stop-color="#C156D0" stop-opacity="0"/>
</linearGradient>
<linearGradient id="paint2_linear_490_2" x1="226.251" y1="10.1198" x2="127.944" y2="91.0785" gradientUnits="userSpaceOnUse">
<stop stop-color="#EF45A1"/>
<stop offset="1" stop-color="#EF45A1" stop-opacity="0"/>
</linearGradient>
<linearGradient id="paint3_linear_490_2" x1="170.592" y1="469.126" x2="430.093" y2="400.456" gradientUnits="userSpaceOnUse">
<stop stop-color="#5248EF"/>
<stop offset="1" stop-color="#5248EF" stop-opacity="0"/>
</linearGradient>
<linearGradient id="paint4_linear_490_2" x1="461.898" y1="326.003" x2="443.104" y2="382.385" gradientUnits="userSpaceOnUse">
<stop stop-color="#01FD48" stop-opacity="0"/>
<stop offset="1" stop-color="#01FD48"/>
</linearGradient>
<linearGradient id="paint5_linear_490_2" x1="474.186" y1="267.452" x2="472.741" y2="323.112" gradientUnits="userSpaceOnUse">
<stop stop-color="#FD9A01" stop-opacity="0"/>
<stop offset="1" stop-color="#FD9A01"/>
</linearGradient>
<linearGradient id="paint6_linear_490_2" x1="424.31" y1="82.4043" x2="270.344" y2="54.2134" gradientUnits="userSpaceOnUse">
<stop stop-color="#6E2CCB"/>
<stop offset="1" stop-color="#6E2CCB" stop-opacity="0"/>
</linearGradient>
</defs>
</svg>
